# xmcd
#
# Track frame offsets: 
#        150
#        16676
#        44646
#        62089
#        79768
#        95874
#        113458
#        140218
#        156074
#        174429
#        203587
#
# Disc length: 2936 seconds
#
# Revision: 0
# Processed by: cddbd v1.5.2PL0 Copyright (c) Steve Scherf et al.
# Submitted via: ExactAudioCopy v1.0b1
#
DISCID=8d0b760b
DTITLE=Brandon Santini - Songs of Love, Money and Misery
DYEAR=2011
DGENRE=Blues
TTITLE0=You Ruined Poor Me
TTITLE1=She's Sweet Like Honey
TTITLE2=What Can I do?
TTITLE3=Beggin' Baby
TTITLE4=Leaving New York
TTITLE5=Tomcattin'
TTITLE6=Sweet Maggie
TTITLE7=I Wanna Boogie With You
TTITLE8=Down To New Orleans
TTITLE9=Evil Woman
TTITLE10=Ida Lee
EXTD=
EXTT0=
EXTT1=
EXTT2=
EXTT3=
EXTT4=
EXTT5=
EXTT6=
EXTT7=
EXTT8=
EXTT9=
EXTT10=
PLAYORDER=
